<!DOCTYPE svg PUBLIC "-//W3C//DTD SVG 1.1//EN" "http://www.w3.org/Graphics/SVG/1.1/DTD/svg11.dtd">
<!-- Uploaded to: SVG Repo, www.svgrepo.com, Transformed by: SVG Repo Mixer Tools -->
<svg width="128px" height="128px" viewBox="-6.4 -6.4 76.80 76.80" data-name="Icon Set - Black" id="Icon_Set_-_Black" xmlns="http://www.w3.org/2000/svg" fill="#000000">
<g id="SVGRepo_bgCarrier" stroke-width="0">
<rect x="-6.4" y="-6.4" width="76.80" height="76.80" rx="38.4" fill="#7ed0ec" strokewidth="0"/>
</g>
<g id="SVGRepo_tracerCarrier" stroke-linecap="round" stroke-linejoin="round"/>
<g id="SVGRepo_iconCarrier"> <defs> <style>.cls-1{fill:none;stroke:#000000;stroke-linecap:round;stroke-linejoin:round;stroke-width:8px;}.cls-2{fill:#ccc;}</style> </defs> <g id="Slider"> <line class="cls-1" x1="10" x2="54" y1="16" y2="16"/> <line class="cls-1" x1="10" x2="54" y1="32" y2="32"/> <line class="cls-1" x1="10" x2="54" y1="48" y2="48"/> <path d="M20,8a8,8,0,1,0,8,8,8,8,0,0,0-8-8Z"/> <path d="M44,24a8,8,0,1,0,8,8,8,8,0,0,0-8-8Z"/> <path d="M20,40a8,8,0,1,0,8,8,8,8,0,0,0-8-8Z"/> <circle class="cls-2" cx="20" cy="16" r="3"/> <circle class="cls-2" cx="44" cy="32" r="3"/> <circle class="cls-2" cx="20" cy="48" r="3"/> </g> </g>
</svg>