<!DOCTYPE svg PUBLIC "-//W3C//DTD SVG 1.1//EN" "http://www.w3.org/Graphics/SVG/1.1/DTD/svg11.dtd">
<!-- Uploaded to: SVG Repo, www.svgrepo.com, Transformed by: SVG Repo Mixer Tools -->
<svg fill="#000000" version="1.1" id="Layer_1" xmlns="http://www.w3.org/2000/svg" xmlns:xlink="http://www.w3.org/1999/xlink" width="128px" height="128px" viewBox="-3.6 -3.6 27.20 27.20" enable-background="new 0 0 20 20" xml:space="preserve">
<g id="SVGRepo_bgCarrier" stroke-width="0">
<rect x="-3.6" y="-3.6" width="27.20" height="27.20" rx="13.6" fill="#7ed0ec" strokewidth="0"/>
</g>
<g id="SVGRepo_tracerCarrier" stroke-linecap="round" stroke-linejoin="round"/>
<g id="SVGRepo_iconCarrier"> <path d="M10,20C4.5,20,0,15.5,0,10S4.5,0,10,0s10,4.5,10,10S15.5,20,10,20z M10,2c-4.4,0-8,3.6-8,8s3.6,8,8,8s8-3.6,8-8S14.4,2,10,2 z"/> <path d="M8.6,11.4c-0.8-0.8-2.8-5.7-2.8-5.7s4.9,2,5.7,2.8c0.8,0.8,0.8,2,0,2.8C10.6,12.2,9.4,12.2,8.6,11.4z"/> </g>
</svg>